# xmcd
#
# Track frame offsets: 
#        150
#        14546
#        71898
#        92422
#        121609
#        150318
#        164992
#
# Disc length: 2431 seconds
#
# Revision: 3
# Processed by: cddbd v1.5.2PL0 Copyright (c) Steve Scherf et al.
# Submitted via: ExactAudioCopyFreeDBPlugin 1.0
#
DISCID=52097d07
DTITLE=Breakout - Ogień
DYEAR=1973
DGENRE=Blues
TTITLE0=Nie zapalaj światla
TTITLE1=Wielki ogien
TTITLE2=Liście zabral wiatr
TTITLE3=Na dnie moich oczu
TTITLE4=Masz to dziś
TTITLE5=Czarno-czarny film
TTITLE6=Daleś mi pierścien
EXTD=
EXTT0=
EXTT1=
EXTT2=
EXTT3=
EXTT4=
EXTT5=
EXTT6=
PLAYORDER=
